<?xml version="1.0" encoding="UTF-8"?>
<svg version="1.1" xmlns="http://www.w3.org/2000/svg" width="512" height="512">
<path d="M0 0 C2.40459506 0.00853125 4.80681714 -0.02044605 7.21118164 -0.05200195 C17.76464129 -0.09882411 27.28226051 1.42304035 37.49795532 3.97781372 C42.06109788 5.06074045 46.7141026 5.67140036 51.34594727 6.38354492 C59.65201169 7.76322177 66.93662647 9.57183396 74.47094727 13.44604492 C75.7760091 14.0885578 77.08207493 14.72903373 78.38891602 15.36791992 C81.16674541 16.73398583 83.93244394 18.12096067 86.68969727 19.52807617 C89.80126505 21.11568998 92.9435185 22.62854504 96.09594727 24.13354492 C100.05112756 26.10784457 103.13008404 28.53167487 106.47094727 31.44604492 C110.3413822 34.17170332 114.33011966 36.72445588 118.33032227 39.25463867 C124.75734142 43.39224038 130.38489295 47.85270836 135.90063477 53.14916992 C138.43700858 55.53063646 138.43700858 55.53063646 141.47875977 57.41479492 C148.44455582 62.14353376 153.97581015 69.37519842 158.85766602 76.19604492 C160.11624947 77.95135744 161.41994437 79.67435098 162.74047852 81.38354492 C173.1482585 95.04515341 179.34339671 110.55525441 185.37744141 126.52978516 C187.21457993 131.37687641 189.18518467 136.02367455 191.5625 140.62939453 C192.94492805 143.39387911 194.03205855 146.2335902 195.09594727 149.13354492 C195.50071289 150.20991211 195.90547852 151.2862793 196.32250977 152.39526367 C199.34754626 161.99478224 199.78018415 172.11944315 199.77172852 182.10620117 C199.77601364 183.2579332 199.78029877 184.40966522 199.78471375 185.59629822 C199.79041064 188.01048124 199.79099198 190.4246814 199.78662109 192.83886719 C199.78345193 196.50314855 199.80701193 200.16662799 199.83227539 203.83081055 C199.83454816 206.19343975 199.83525198 208.5560711 199.83422852 210.91870117 C199.84343826 211.99716812 199.85264801 213.07563507 199.86213684 214.18678284 C199.80236037 224.15070403 197.74875825 233.19102358 193.72875977 242.32104492 C193.21958008 243.49151367 192.71040039 244.66198242 192.18579102 245.86791992 C191.66114258 247.04870117 191.13649414 248.22948242 190.59594727 249.44604492 C189.55634079 251.82080686 188.51727333 254.19580484 187.47875977 256.57104492 C186.97296387 257.72016357 186.46716797 258.86928223 185.94604492 260.05322266 C184.53156315 263.30662437 183.16537293 266.57587901 181.81469727 269.85620117 C179.97719817 274.29344849 178.01535928 278.59920384 175.84594727 282.88354492 C175.27618164 284.01663086 174.70641602 285.1497168 174.11938477 286.31713867 C172.65591529 289.09495633 171.11415697 291.77205537 169.47094727 294.44604492 C168.96176758 295.30842773 168.45258789 296.17081055 167.92797852 297.05932617 C161.91797407 306.92372777 155.158429 313.31063982 145.47094727 319.44604492 C140.2130937 322.96266127 135.24813288 326.60955191 130.47094727 330.75854492 C110.65698816 347.1351035 86.6305381 352.78464615 62.05541992 357.72387695 C59.9110045 358.15591488 57.76897135 358.60049653 55.63256836 359.07055664 C47.38689805 360.78484934 39.10821834 360.90526011 30.72094727 361.07104492 C29.16161979 361.10492068 27.60229363 361.1388568 26.04296875 361.17285156 C23.70771655 361.22243123 21.37248942 361.26999495 19.03709412 361.31233215 C14.51844097 361.3947356 10.00643792 361.53221742 5.49047852 361.71557617 C-5.27291507 362.07518166 -13.42300926 361.9198727 -22.52905273 355.44604492 C-23.41592773 354.86983398 -24.30280273 354.29362305 -25.21655273 353.69995117 C-27.72286355 352.02534766 -30.13117518 350.27160675 -32.52905273 348.44604492 C-33.48424805 347.7402832 -33.48424805 347.7402832 -34.45874023 347.02026367 C-44.80162 338.86088074 -54.37801421 322.89916049 -58.52905273 310.44604492 C-58.87230064 305.97258122 -58.89981942 301.49348381 -58.96655273 297.00854492 C-59.01231445 295.7871582 -59.05807617 294.56577148 -59.10522461 293.30737305 C-59.23398432 282.78826436 -56.61311014 274.45159276 -49.27514648 266.71166992 C-48.18511565 265.6925591 -47.08220317 264.6870435 -45.96655273 263.69604492 C-39.23884429 257.32691992 -34.12948619 252.05298026 -33.52905273 242.44604492 C-35.44536481 242.39041006 -37.36219199 242.35254263 -39.27905273 242.32104492 C-40.34639648 242.2978418 -41.41374023 242.27463867 -42.51342773 242.25073242 C-45.68552774 242.30389697 -48.62445867 242.82284104 -51.73510742 243.43286133 C-59.56239757 244.76102343 -67.3353345 244.81303922 -75.24780273 244.85229492 C-76.02719711 244.85794968 -76.80659149 244.86360443 -77.60960388 244.86943054 C-81.72778619 244.8991744 -85.84583251 244.91778858 -89.96411133 244.92651367 C-94.18035989 244.93750117 -98.39532279 244.98565955 -102.61116791 245.04245758 C-105.89031506 245.07995568 -109.16915827 245.09013395 -112.44850159 245.09318542 C-114.00166414 245.09917599 -115.55482546 245.11501788 -117.10777283 245.14155579 C-130.50211131 245.35428602 -140.36579494 241.6633104 -150.84155273 233.19604492 C-151.43202393 232.72062256 -152.02249512 232.2452002 -152.63085938 231.75537109 C-161.81017696 224.11461427 -166.37251632 214.40875567 -170.69281006 203.50299072 C-171.44479676 201.65329335 -172.26848121 199.83313282 -173.10058594 198.01806641 C-175.23350572 192.26947756 -174.9775612 186.42453068 -174.96264648 180.36401367 C-174.96788834 179.11405106 -174.97313019 177.86408844 -174.97853088 176.57624817 C-174.98656761 173.26778595 -174.97952374 169.95974236 -174.96820068 166.65130615 C-174.96655764 164.63955569 -174.97851951 162.62837237 -174.99560547 160.61669922 C-175.02646374 156.71970619 -175.02967317 152.82361009 -175.02514648 148.92651367 C-175.03638046 147.73970505 -175.04761444 146.55289642 -175.05918884 145.3301239 C-174.99539577 137.61486046 -173.65788142 131.48964418 -170.52905273 124.44604492 C-170.13032455 123.54407883 -169.73159637 122.64211273 -169.32078552 121.71281433 C-168.53779214 119.97253209 -167.74122458 118.2383284 -166.93530273 116.50854492 C-165.6079068 113.61777156 -164.34256754 110.70788998 -163.08862305 107.78491211 C-157.80068436 95.49770857 -152.31477697 83.37420003 -144.52905273 72.44604492 C-143.86905273 71.37354492 -143.20905273 70.30104492 -142.52905273 69.19604492 C-140.21167989 66.00965726 -137.60558074 63.89471007 -134.52905273 61.44604492 C-132.06910764 59.04609849 -129.67758011 56.60431611 -127.32592773 54.09838867 C-124.19995121 51.13395004 -120.9440765 48.8455644 -117.34155273 46.50854492 C-116.34744385 45.85450684 -116.34744385 45.85450684 -115.33325195 45.18725586 C-110.8771238 42.27275981 -106.35638877 39.48793812 -101.76342773 36.79370117 C-99.58415924 35.47928224 -97.49853313 34.07842143 -95.40405273 32.63354492 C-89.32207853 28.51735166 -82.85114381 25.05274106 -76.42651367 21.50756836 C-74.63572702 20.50572323 -72.86668775 19.46528745 -71.09936523 18.42260742 C-63.33467718 13.99047374 -54.89803747 10.95839495 -46.52905273 7.88354492 C-45.5197168 7.4974707 -44.51038086 7.11139648 -43.47045898 6.71362305 C-29.23126739 1.49614148 -15.08250359 -0.08111341 0 0 Z M-5.52905273 63.44604492 C-5.52905273 64.10604492 -5.52905273 64.76604492 -5.52905273 65.44604492 C-6.85936523 65.78635742 -6.85936523 65.78635742 -8.21655273 66.13354492 C-14.72146301 68.7109622 -18.40392445 74.40012366 -21.52905273 80.44604492 C-23.85092264 88.11259648 -22.14790195 94.52558326 -18.52905273 101.44604492 C-13.27747373 107.7748709 -7.53089898 110.42477142 0.47094727 111.44604492 C9.67474689 112.12146067 17.26197382 111.85199112 25.47094727 107.44604492 C26.54344727 106.93041992 27.61594727 106.41479492 28.72094727 105.88354492 C34.57995988 100.6903292 38.17569908 93.05645895 38.67407227 85.27416992 C38.78576214 76.74850939 38.79638237 70.38406017 33.09594727 63.63354492 C22.9154001 55.14975562 4.61857938 53.72123081 -5.52905273 63.44604492 Z M-88.52905273 100.44604492 C-89.58737305 100.93331055 -90.64569336 101.42057617 -91.73608398 101.92260742 C-98.56185475 105.27803682 -103.69895696 108.14499998 -106.52905273 115.44604492 C-109.28112916 123.81162823 -108.4766703 134.44785845 -104.71264648 142.30151367 C-104.32206055 143.00920898 -103.93147461 143.7169043 -103.52905273 144.44604492 C-103.1900293 145.10217773 -102.85100586 145.75831055 -102.50170898 146.43432617 C-98.94234828 152.34970499 -92.9988469 155.03640924 -86.57202148 157.06323242 C-75.98077346 159.04782574 -66.17824393 157.05650762 -57.21655273 151.25854492 C-51.67635055 147.14694833 -47.8613337 142.30337345 -46.52905273 135.44604492 C-45.18784447 122.91344312 -51.21706268 112.2591456 -58.52905273 102.44604492 C-64.11970223 97.58952112 -70.63734143 97.13594093 -77.73999023 97.23901367 C-81.83318961 97.5428506 -84.86974643 98.64512978 -88.52905273 100.44604492 Z M70.47094727 116.44604492 C68.52413486 119.07935574 66.89798977 121.84981554 65.28344727 124.69604492 C64.85870117 125.40889648 64.43395508 126.12174805 63.99633789 126.85620117 C59.64888345 134.36113808 55.67929188 142.68189668 58.01000977 151.48120117 C60.5787695 159.03222566 64.42173811 162.92144034 71.47094727 166.44604492 C82.71225762 170.17667759 94.2749262 167.01542407 104.41625977 161.98510742 C112.58230087 157.69521383 119.10462482 153.81141943 122.06079102 144.61010742 C123.73450481 135.77927463 122.92603 127.28287363 118.47094727 119.44604492 C114.1640387 113.74572476 106.53935094 109.68204994 99.47094727 108.44604492 C88.16916463 107.7689796 78.88982226 107.90444191 70.47094727 116.44604492 Z M58.78344727 203.32104492 C58.14141357 203.6484668 57.49937988 203.97588867 56.83789062 204.31323242 C51.06953741 207.38369048 46.17707652 211.35725409 43.47094727 217.44604492 C41.99809358 223.99457901 42.0634939 229.55564103 45.47094727 235.44604492 C48.4854965 239.0467565 51.95203564 241.56695968 55.79516602 244.19213867 C57.47094727 245.44604492 57.47094727 245.44604492 59.78344727 248.00854492 C64.5167601 252.30154959 70.44617465 254.60860237 76.84594727 254.94604492 C86.78913694 254.40241374 96.1459675 250.08682328 103.47094727 243.44604492 C109.28188225 236.28279557 110.14979877 229.49739828 109.47094727 220.44604492 C107.69128971 211.75890294 102.21349104 206.40054244 95.03344727 201.63354492 C81.51555718 193.48627604 71.78700363 196.58764923 58.78344727 203.32104492 Z M5.47094727 259.94604492 C2.17444657 264.06667079 2.01466016 267.2977489 2.47094727 272.44604492 C3.96797571 280.87884734 7.79015903 288.84034939 14.68188477 294.14916992 C19.18188777 296.82152665 23.19777416 298.16355351 28.47094727 298.44604492 C29.53635742 298.53885742 29.53635742 298.53885742 30.62329102 298.63354492 C36.43115729 298.95124017 40.71520699 297.84913672 45.47094727 294.44604492 C49.31586969 290.69724556 49.79592916 287.37881169 50.03344727 282.19604492 C49.77689285 274.16955665 47.12256062 268.56169061 41.97094727 262.50854492 C32.32866329 254.55366064 15.80993546 251.33022142 5.47094727 259.94604492 Z " fill="#000000" transform="translate(249.529052734375,75.553955078125)"/>
</svg>
