<?xml version="1.0" standalone="no"?>
<!DOCTYPE svg PUBLIC "-//W3C//DTD SVG 20010904//EN"
 "http://www.w3.org/TR/2001/REC-SVG-20010904/DTD/svg10.dtd">
<svg version="1.0" xmlns="http://www.w3.org/2000/svg"
 width="512.000000pt" height="512.000000pt" viewBox="0 0 512.000000 512.000000"
 preserveAspectRatio="xMidYMid meet">

<g transform="translate(0.000000,512.000000) scale(0.100000,-0.100000)"
fill="#000000" stroke="none">
<path d="M1820 3615 c-25 -8 -59 -15 -76 -15 -48 0 -247 -65 -279 -91 -6 -4
-51 -24 -100 -43 -101 -38 -222 -102 -277 -146 -20 -17 -39 -30 -42 -30 -11 0
-104 -67 -164 -117 -34 -29 -66 -53 -71 -53 -11 0 -73 -52 -126 -106 -22 -22
-62 -78 -89 -125 -27 -46 -57 -93 -66 -104 -10 -11 -30 -45 -45 -75 -15 -30
-31 -62 -36 -70 -37 -61 -30 -105 25 -139 97 -62 130 -93 212 -198 35 -44 79
-91 97 -102 17 -12 55 -37 82 -56 58 -41 386 -205 409 -205 4 0 22 -6 39 -14
18 -8 75 -31 127 -51 52 -21 118 -47 145 -60 70 -33 133 -51 260 -77 103 -22
134 -23 495 -23 381 0 386 0 455 24 39 13 75 27 80 31 6 4 28 13 50 20 37 11
136 52 212 86 17 8 34 14 38 14 6 0 103 40 183 76 l34 14 -29 29 c-15 15 -41
46 -57 68 l-28 41 -62 -25 c-33 -13 -74 -30 -91 -38 -65 -29 -212 -88 -250
-100 -22 -7 -69 -26 -105 -41 l-65 -29 -340 -3 c-483 -6 -477 -7 -1040 219
-108 44 -329 152 -350 172 -7 6 -35 28 -63 47 -27 19 -64 55 -83 80 -19 25
-71 82 -116 126 -83 81 -83 81 -72 115 7 19 21 45 33 59 29 34 66 88 66 96 0
3 13 23 30 44 16 21 30 43 30 48 0 12 73 73 110 92 14 7 48 32 75 55 28 23 66
53 86 66 20 13 64 43 98 67 35 23 65 42 68 42 3 0 17 8 31 19 15 10 38 22 52
26 14 4 32 13 40 19 8 7 47 25 85 41 39 16 96 41 128 56 32 15 100 38 150 50
51 12 108 26 127 31 55 14 800 6 825 -10 11 -6 70 -32 132 -56 92 -37 294
-143 337 -177 6 -5 47 -36 91 -69 44 -33 116 -101 160 -151 44 -51 124 -140
177 -200 53 -60 109 -128 123 -153 15 -25 35 -48 47 -51 25 -9 18 -43 -18 -90
-13 -17 -24 -36 -24 -41 0 -18 111 -94 138 -94 6 0 17 15 26 33 9 17 30 55 46
82 32 55 39 119 18 158 -20 34 -50 67 -63 67 -6 0 -19 14 -30 32 -10 17 -57
74 -103 126 -47 52 -106 122 -131 156 -99 135 -297 303 -464 394 -23 13 -53
31 -67 40 -14 10 -63 35 -110 55 -47 21 -103 47 -125 58 -23 11 -70 29 -105
41 -61 20 -87 22 -465 24 -329 3 -408 1 -445 -11z"/>
<path d="M2052 3316 c-30 -15 -65 -26 -77 -26 -13 0 -26 -4 -30 -9 -3 -5 -22
-15 -43 -22 -20 -7 -51 -23 -68 -36 -17 -12 -35 -23 -40 -23 -20 0 -92 -87
-117 -140 -38 -81 -67 -174 -67 -215 0 -20 -9 -57 -21 -82 -17 -37 -20 -61
-17 -122 8 -178 115 -289 425 -440 230 -112 452 -121 663 -29 25 11 52 24 60
29 8 5 24 13 35 18 41 19 97 83 121 138 24 55 26 69 31 300 7 273 2 301 -62
363 -20 20 -35 44 -35 57 0 41 -58 88 -155 126 -49 20 -142 57 -205 83 -110
45 -120 48 -230 51 -107 4 -119 2 -168 -21z"/>
<path d="M3305 2531 c-38 -16 -60 -51 -60 -96 0 -49 12 -66 80 -110 27 -18 88
-72 135 -119 46 -47 90 -86 97 -86 6 0 40 -26 74 -57 70 -66 131 -109 205
-147 27 -14 68 -41 90 -60 l39 -34 -21 -24 c-11 -12 -28 -35 -37 -49 -8 -15
-42 -57 -74 -95 -93 -110 -118 -150 -203 -324 -24 -48 -48 -78 -92 -114 -34
-28 -67 -65 -75 -84 -35 -85 31 -166 120 -146 61 13 237 205 262 285 7 21 21
49 66 130 8 13 29 40 48 61 18 20 38 45 45 56 6 11 30 44 53 73 24 30 60 76
80 102 21 27 54 78 73 115 28 54 48 76 100 114 36 25 88 65 115 88 60 50 136
100 152 100 6 0 35 26 65 59 29 32 78 74 108 93 79 51 95 72 95 124 0 63 -38
99 -103 99 -39 0 -59 -8 -117 -47 -38 -25 -88 -65 -110 -88 -22 -24 -71 -63
-110 -88 -38 -25 -83 -57 -100 -73 -16 -15 -75 -61 -130 -102 l-99 -75 -61 42
c-33 23 -91 61 -130 84 -38 23 -103 71 -144 107 -41 36 -78 65 -84 65 -5 0
-52 42 -104 94 -120 120 -184 153 -248 127z"/>
</g>
</svg>
