<?xml version="1.0" standalone="no"?>
<!DOCTYPE svg PUBLIC "-//W3C//DTD SVG 20010904//EN"
 "http://www.w3.org/TR/2001/REC-SVG-20010904/DTD/svg10.dtd">
<svg version="1.0" xmlns="http://www.w3.org/2000/svg"
 width="512.000000pt" height="512.000000pt" viewBox="0 0 512.000000 512.000000"
 preserveAspectRatio="xMidYMid meet">

<g transform="translate(0.000000,512.000000) scale(0.100000,-0.100000)"
fill="#000000" stroke="none">
<path d="M1820 3615 c-25 -8 -59 -15 -76 -15 -48 0 -247 -65 -279 -91 -6 -4
-51 -24 -100 -43 -101 -38 -222 -102 -277 -146 -20 -17 -39 -30 -42 -30 -11 0
-104 -67 -164 -117 -34 -29 -66 -53 -71 -53 -11 0 -73 -52 -126 -106 -22 -22
-62 -78 -89 -125 -27 -46 -57 -93 -66 -104 -10 -11 -30 -45 -45 -75 -15 -30
-31 -62 -36 -70 -37 -61 -30 -105 25 -139 97 -62 130 -93 212 -198 35 -44 79
-91 97 -102 17 -12 55 -37 82 -56 58 -41 386 -205 409 -205 4 0 22 -6 39 -14
18 -8 75 -31 127 -51 52 -21 118 -47 145 -60 70 -33 133 -51 260 -77 103 -22
134 -23 495 -23 381 0 386 0 455 24 39 13 75 27 80 31 6 4 28 13 50 20 36 11
149 57 200 81 11 5 38 15 60 23 104 38 212 88 228 107 26 33 23 93 -8 113 -45
29 -119 14 -280 -58 -62 -28 -212 -89 -250 -101 -22 -7 -69 -26 -105 -41 l-65
-29 -340 -3 c-483 -6 -477 -7 -1040 219 -108 44 -329 152 -350 172 -7 6 -35
28 -63 47 -27 19 -64 55 -83 80 -19 25 -71 82 -116 126 -83 81 -83 81 -72 115
7 19 21 45 33 59 29 34 66 88 66 96 0 3 13 23 30 44 16 21 30 43 30 48 0 12
73 73 110 92 14 7 48 32 75 55 28 23 66 53 86 66 20 13 64 43 98 67 35 23 65
42 68 42 3 0 17 8 31 19 15 10 38 22 52 26 14 4 32 13 40 19 8 7 47 25 85 41
39 16 96 41 128 56 32 15 100 38 150 50 51 12 108 26 127 31 55 14 800 6 825
-10 11 -6 70 -32 132 -56 92 -37 294 -143 337 -177 6 -5 47 -36 91 -69 44 -33
116 -101 160 -151 44 -51 124 -140 177 -200 53 -60 109 -128 123 -153 15 -25
35 -48 46 -51 20 -7 26 -30 9 -40 -14 -9 -12 -51 3 -63 43 -35 156 -20 176 25
15 32 14 98 -1 126 -20 34 -50 67 -63 67 -6 0 -19 14 -30 32 -10 17 -57 74
-103 126 -47 52 -106 122 -131 156 -99 135 -297 303 -464 394 -23 13 -53 31
-67 40 -14 10 -63 35 -110 55 -47 21 -103 47 -125 58 -23 11 -70 29 -105 41
-61 20 -87 22 -465 24 -329 3 -408 1 -445 -11z"/>
<path d="M2052 3316 c-30 -15 -65 -26 -77 -26 -13 0 -26 -4 -30 -9 -3 -5 -22
-15 -43 -22 -20 -7 -51 -23 -68 -36 -17 -12 -35 -23 -40 -23 -20 0 -92 -87
-117 -140 -38 -81 -67 -174 -67 -215 0 -20 -9 -57 -21 -82 -17 -37 -20 -61
-17 -122 8 -178 115 -289 425 -440 230 -112 452 -121 663 -29 25 11 52 24 60
29 8 5 24 13 35 18 41 19 97 83 121 138 24 55 26 69 31 300 7 273 2 301 -62
363 -20 20 -35 44 -35 57 0 41 -58 88 -155 126 -49 20 -142 57 -205 83 -110
45 -120 48 -230 51 -107 4 -119 2 -168 -21z"/>
<path d="M3295 2381 c-65 -27 -82 -118 -32 -168 l27 -28 500 -3 c275 -1 500
-6 500 -10 0 -12 -57 -65 -127 -120 -137 -106 -167 -130 -256 -201 -127 -101
-373 -340 -427 -416 -82 -113 -85 -118 -85 -161 0 -53 29 -87 88 -103 30 -9
203 -11 604 -9 l563 3 27 28 c40 39 40 105 0 144 l-27 28 -473 5 -472 5 34 20
c51 31 91 65 91 80 0 15 170 188 209 213 14 9 102 77 195 152 164 131 240 209
346 360 36 51 35 120 -3 157 l-27 28 -618 2 c-339 1 -626 -2 -637 -6z"/>
</g>
</svg>
