<?xml version="1.0" standalone="no"?>
<!DOCTYPE svg PUBLIC "-//W3C//DTD SVG 20010904//EN"
 "http://www.w3.org/TR/2001/REC-SVG-20010904/DTD/svg10.dtd">
<svg version="1.0" xmlns="http://www.w3.org/2000/svg"
 width="512.000000pt" height="512.000000pt" viewBox="0 0 512.000000 512.000000"
 preserveAspectRatio="xMidYMid meet">

<g transform="translate(0.000000,512.000000) scale(0.100000,-0.100000)"
fill="#000000" stroke="none">
<path d="M2845 3921 c-22 -10 -135 -125 -135 -138 0 -4 -15 -24 -33 -43 -18
-19 -52 -59 -76 -87 l-43 -53 -341 0 c-335 0 -389 -4 -522 -37 -33 -8 -73 -17
-88 -20 -16 -3 -59 -20 -95 -38 -37 -18 -95 -42 -130 -55 -34 -13 -65 -27 -68
-31 -3 -5 -12 -9 -20 -9 -8 0 -32 -11 -54 -25 -22 -14 -46 -25 -54 -25 -8 0
-16 -4 -18 -8 -4 -10 -87 -65 -110 -75 -10 -3 -18 -10 -18 -15 0 -5 -26 -25
-58 -45 -31 -19 -74 -51 -95 -70 -20 -19 -44 -37 -51 -40 -58 -22 -186 -150
-186 -186 0 -5 -7 -14 -15 -21 -8 -7 -25 -32 -37 -57 -12 -24 -35 -58 -50 -75
-15 -17 -28 -37 -28 -43 0 -7 -11 -32 -25 -56 -39 -69 -46 -90 -39 -113 8 -25
33 -56 47 -56 21 0 140 -113 210 -199 46 -56 165 -161 183 -161 4 0 22 -11 40
-25 18 -14 37 -25 41 -25 15 0 63 -25 63 -32 0 -5 4 -8 10 -8 5 0 39 -13 73
-30 35 -16 69 -30 75 -30 7 0 12 -4 12 -8 0 -5 27 -16 60 -26 l60 -18 -35 -47
c-19 -25 -49 -70 -66 -100 -22 -36 -43 -58 -66 -67 -40 -17 -58 -56 -46 -99
11 -38 47 -57 99 -52 51 5 120 66 166 147 17 30 48 73 69 95 22 22 39 47 39
55 0 9 11 32 25 51 15 19 36 53 48 77 12 24 38 59 59 77 20 19 45 48 55 66 10
17 23 40 29 50 6 10 27 35 47 54 21 20 37 42 37 49 0 6 26 43 58 81 31 37 77
95 102 129 24 34 55 72 67 86 13 14 36 40 51 58 15 18 41 50 58 70 18 20 54
69 80 108 27 39 70 99 97 133 26 34 47 65 47 69 0 4 14 27 30 52 17 25 38 61
47 80 9 19 41 60 71 91 64 67 77 86 85 120 4 14 31 54 62 88 30 34 55 65 55
70 0 4 25 32 56 62 31 30 70 70 87 89 18 19 51 55 75 81 35 38 42 53 42 86 0
26 -6 46 -18 56 -23 21 -70 29 -97 18z m-437 -515 c-7 -13 -27 -39 -44 -58
l-30 -34 -120 4 c-107 4 -125 2 -164 -17 -24 -11 -53 -21 -64 -22 -12 0 -48
-16 -81 -34 -33 -19 -74 -40 -91 -48 -32 -15 -124 -99 -124 -114 0 -4 -9 -25
-20 -46 -31 -57 -70 -181 -70 -220 0 -19 -7 -48 -15 -63 -21 -40 -20 -162 2
-216 9 -24 28 -61 43 -83 30 -45 26 -61 -23 -113 -14 -15 -40 -48 -59 -74 -18
-26 -56 -78 -84 -116 l-50 -70 -85 35 c-46 19 -91 37 -99 40 -37 14 -142 68
-146 75 -3 4 -12 8 -20 8 -9 0 -30 11 -48 25 -18 14 -38 25 -44 25 -17 0 -146
131 -176 178 -14 23 -51 60 -81 83 -30 23 -55 44 -55 48 0 28 26 80 59 120 23
27 41 52 41 57 0 32 138 184 167 184 5 0 22 14 38 30 16 17 34 30 40 30 7 0
20 10 31 21 17 19 62 52 113 84 9 6 32 22 51 36 33 25 259 139 275 139 8 0 90
37 147 67 25 13 81 26 176 43 23 4 45 10 49 13 3 4 134 7 290 7 l284 0 -13
-24z"/>
<path d="M2869 3442 c-24 -26 -49 -56 -56 -68 -10 -19 -7 -23 40 -46 210 -102
378 -219 477 -333 36 -42 113 -128 171 -193 58 -64 118 -135 132 -157 38 -58
53 -75 66 -75 6 0 10 -3 9 -7 -5 -18 15 -90 29 -105 11 -12 31 -18 58 -18 42
0 43 1 69 55 14 31 26 63 26 73 0 29 -44 107 -66 116 -11 5 -30 23 -41 40 -11
17 -60 77 -109 133 -104 118 -154 179 -154 187 0 4 -14 19 -31 34 -16 15 -65
61 -107 102 -92 91 -154 140 -175 140 -9 0 -20 6 -24 14 -4 7 -35 28 -68 46
-33 18 -71 40 -85 49 -14 8 -46 25 -71 37 l-47 22 -43 -46z"/>
<path d="M2634 3118 c-41 -43 -108 -140 -121 -175 -4 -10 -33 -50 -65 -90 -32
-39 -58 -74 -58 -77 0 -10 -71 -108 -106 -149 -19 -20 -34 -40 -34 -45 0 -4
-17 -25 -38 -47 -56 -59 -112 -130 -112 -143 0 -6 -16 -23 -35 -38 -19 -14
-35 -31 -35 -36 0 -6 -16 -28 -35 -50 -38 -42 -38 -53 3 -70 143 -59 230 -78
355 -78 112 0 160 9 270 53 107 43 184 106 220 179 27 57 28 63 34 286 7 274
1 315 -58 366 -26 22 -39 41 -39 58 0 31 -46 85 -80 93 -20 5 -33 -2 -66 -37z"/>
<path d="M3295 2381 c-65 -27 -82 -118 -32 -168 l27 -28 500 -3 c275 -1 500
-6 500 -10 0 -12 -57 -65 -127 -120 -137 -106 -167 -130 -256 -201 -127 -101
-373 -340 -427 -416 -82 -113 -85 -118 -85 -161 0 -53 29 -87 88 -103 30 -9
203 -11 604 -9 l563 3 27 28 c40 39 40 105 0 144 l-27 28 -473 5 -472 5 34 20
c51 31 91 65 91 80 0 15 170 188 209 213 14 9 102 77 195 152 164 131 240 209
346 360 36 51 35 120 -3 157 l-27 28 -618 2 c-339 1 -626 -2 -637 -6z"/>
<path d="M3225 2126 c-27 -13 -109 -47 -235 -96 -25 -10 -58 -25 -75 -34 -16
-9 -36 -16 -43 -16 -7 0 -32 -9 -54 -20 -23 -11 -47 -20 -52 -20 -6 -1 -29 -9
-51 -20 -37 -18 -65 -19 -401 -20 -205 0 -374 4 -390 10 -16 5 -64 16 -107 23
l-78 15 -19 -42 c-11 -22 -29 -56 -41 -73 -16 -26 -18 -34 -7 -38 21 -7 98
-26 153 -36 28 -5 69 -14 93 -19 56 -13 689 -13 772 0 55 9 502 175 535 199 6
4 38 18 73 31 34 12 65 27 68 31 3 5 12 9 21 9 51 0 62 75 17 105 -35 22 -141
29 -179 11z"/>
</g>
</svg>
