<?xml version="1.0" standalone="no"?>
<!DOCTYPE svg PUBLIC "-//W3C//DTD SVG 20010904//EN"
 "http://www.w3.org/TR/2001/REC-SVG-20010904/DTD/svg10.dtd">
<svg version="1.0" xmlns="http://www.w3.org/2000/svg"
 width="512.000000pt" height="512.000000pt" viewBox="0 0 512.000000 512.000000"
 preserveAspectRatio="xMidYMid meet">

<g transform="translate(0.000000,512.000000) scale(0.100000,-0.100000)"
fill="#000000" stroke="none">
<path d="M2229 4658 c-25 -19 -40 -79 -48 -181 l-6 -92 -85 3 c-47 1 -199 7
-339 13 -273 11 -382 5 -456 -23 -55 -21 -65 -36 -65 -97 0 -92 8 -97 150
-104 66 -3 126 -10 133 -15 7 -6 62 -23 122 -37 61 -14 119 -30 130 -34 11 -5
67 -16 125 -25 58 -10 116 -24 129 -32 12 -9 66 -22 120 -30 53 -8 119 -21
146 -29 56 -15 205 -43 305 -56 85 -11 147 -24 196 -43 26 -9 98 -16 218 -20
166 -6 222 -13 303 -37 17 -6 56 -14 85 -19 113 -21 151 -30 166 -42 17 -14
196 -17 245 -5 24 7 27 12 27 51 0 42 -28 96 -50 96 -5 0 -26 16 -47 35 -21
19 -43 35 -50 35 -7 0 -16 7 -20 15 -5 8 -35 23 -68 34 -99 33 -148 51 -183
67 -64 30 -167 64 -192 64 -14 0 -34 6 -45 14 -11 7 -36 16 -55 18 -70 10
-195 40 -207 50 -10 8 -7 17 11 42 38 50 56 92 56 130 0 30 -6 39 -37 59 -21
13 -51 28 -68 34 -141 53 -201 78 -210 87 -11 12 -37 21 -175 58 -102 27 -237
35 -261 16z m153 -107 c13 -5 50 -15 83 -22 33 -7 67 -18 76 -26 8 -7 21 -13
27 -13 7 0 31 -9 55 -19 23 -11 59 -24 80 -31 20 -6 37 -16 37 -21 0 -5 8 -9
18 -9 10 0 35 -8 55 -18 l38 -18 -52 -52 c-28 -29 -56 -52 -61 -52 -5 0 -48
11 -96 25 -48 13 -121 31 -162 39 -41 8 -104 23 -139 33 l-63 18 5 50 c11 90
25 125 52 125 13 0 34 -4 47 -9z"/>
<path d="M1215 3640 c-3 -5 -20 -10 -37 -10 -17 0 -39 -7 -49 -16 -16 -15 -17
-40 -13 -337 3 -211 10 -357 20 -422 8 -55 20 -134 25 -175 6 -41 15 -100 20
-130 43 -252 49 -306 49 -420 0 -69 5 -141 11 -160 6 -19 14 -123 19 -230 5
-107 16 -229 24 -270 9 -41 16 -107 16 -147 0 -73 21 -178 40 -197 5 -5 10
-18 10 -28 0 -9 9 -33 20 -53 11 -20 20 -42 20 -50 0 -38 83 -261 108 -288 21
-24 75 -48 182 -82 81 -25 117 -38 150 -55 8 -4 47 -14 85 -24 63 -15 136 -17
725 -14 620 3 657 4 700 22 25 11 52 25 60 31 8 6 27 16 42 23 35 15 55 60 88
207 7 28 15 127 20 220 6 125 13 187 28 235 28 90 82 323 82 357 1 15 8 46 16
68 15 38 48 186 60 270 6 46 42 216 54 260 5 17 16 73 24 125 9 52 21 114 26
138 6 23 10 68 11 100 1 65 17 169 50 317 21 91 20 669 -1 710 l-15 30 -1332
3 c-883 1 -1334 -1 -1338 -8z m384 -456 c15 -19 21 -41 21 -78 0 -28 5 -67 10
-86 13 -43 46 -217 55 -285 3 -27 12 -84 20 -125 27 -151 57 -307 76 -400 11
-52 26 -129 34 -170 7 -41 21 -95 29 -119 9 -24 16 -55 16 -69 0 -14 4 -39 10
-56 5 -17 18 -92 30 -166 33 -214 42 -264 52 -276 5 -7 11 -35 15 -63 7 -63
-6 -81 -57 -81 -40 0 -54 11 -63 50 -16 67 -39 190 -63 330 -41 245 -44 257
-55 287 -6 15 -17 62 -24 103 -8 41 -23 118 -34 170 -19 93 -49 249 -76 400
-8 41 -17 98 -20 125 -10 73 -44 256 -51 267 -3 5 -10 44 -15 86 -4 42 -11 94
-15 115 -8 47 7 67 51 67 24 0 39 -7 54 -26z m989 -26 c9 -9 12 -113 12 -407
0 -333 3 -406 17 -456 13 -48 17 -144 24 -490 4 -236 11 -453 14 -481 8 -60
-6 -77 -57 -72 -61 6 -62 12 -69 493 -5 349 -10 441 -23 490 -13 51 -16 126
-16 486 0 317 3 428 12 437 7 7 26 12 43 12 17 0 36 -5 43 -12z m920 -80 c21
-21 15 -266 -9 -393 -12 -60 -25 -119 -30 -130 -4 -11 -10 -42 -14 -70 -3 -27
-12 -75 -20 -105 -25 -102 -35 -161 -35 -208 -1 -26 -8 -90 -16 -142 -9 -52
-18 -115 -21 -140 -3 -25 -9 -49 -14 -55 -5 -5 -9 -21 -9 -35 0 -14 -4 -30 -8
-35 -5 -6 -19 -37 -32 -70 -12 -33 -29 -76 -38 -95 -8 -19 -19 -51 -23 -70 -4
-19 -14 -70 -23 -114 -8 -43 -23 -95 -33 -115 -17 -33 -22 -36 -66 -39 -27 -2
-55 2 -63 9 -21 17 -18 75 4 91 21 15 33 47 57 163 9 44 38 132 62 195 25 63
50 131 55 150 22 80 58 304 58 362 0 46 11 114 32 193 6 22 16 74 23 115 8 41
25 129 39 195 19 86 26 149 26 225 0 117 6 130 55 130 17 0 36 -5 43 -12z"/>
</g>
</svg>
